<?xml version="1.0" standalone="no"?>
<!DOCTYPE svg PUBLIC "-//W3C//DTD SVG 20010904//EN"
 "http://www.w3.org/TR/2001/REC-SVG-20010904/DTD/svg10.dtd">
<svg version="1.0" xmlns="http://www.w3.org/2000/svg"
 width="700.000000pt" height="700.000000pt" viewBox="0 0 700.000000 700.000000"
 preserveAspectRatio="xMidYMid meet">
<metadata>
Created by potrace 1.14, written by Peter Selinger 2001-2017
</metadata>
<g transform="translate(0.000000,700.000000) scale(0.100000,-0.100000)"
fill="#000000" stroke="none">
<path d="M1400 6980 c-191 -41 -343 -123 -481 -260 -138 -136 -229 -310 -270
-515 -6 -33 -12 -152 -13 -267 0 -179 -3 -208 -16 -208 -8 -1 -96 -2 -195 -3
-170 -2 -183 -4 -235 -28 -66 -31 -127 -90 -160 -155 -35 -68 -35 -196 -1
-267 31 -64 85 -118 152 -153 53 -28 57 -29 255 -32 l200 -4 0 -316 -1 -317
-186 -1 c-220 -1 -263 -11 -345 -86 -72 -66 -98 -129 -99 -233 0 -69 4 -88 29
-138 49 -96 135 -160 234 -173 28 -3 122 -7 209 -8 l158 -1 0 -316 0 -317
-185 -1 c-228 -2 -200 1 -273 -35 -77 -39 -140 -113 -163 -192 -52 -181 69
-374 253 -403 26 -4 119 -7 206 -6 86 0 158 -2 158 -5 1 -3 3 -146 4 -317 l1
-313 -175 -1 c-208 -1 -208 -1 -288 -40 -67 -32 -110 -76 -145 -149 -34 -70
-32 -197 5 -267 36 -69 82 -114 154 -149 56 -28 65 -29 213 -31 85 -1 173 -2
195 -2 l41 -1 -1 -178 c0 -198 7 -271 36 -386 18 -70 65 -182 102 -241 55 -89
72 -110 152 -189 38 -38 106 -93 150 -121 80 -53 229 -118 295 -130 19 -3 53
-9 75 -13 55 -10 4069 -9 4127 1 99 16 294 93 339 133 8 8 19 14 24 14 14 0
97 70 161 135 147 151 240 349 261 555 8 83 8 2473 0 2522 -17 96 -104 199
-199 233 -166 60 -347 -21 -408 -183 l-22 -57 0 -1225 c-1 -1347 2 -1282 -63
-1371 -38 -52 -110 -104 -169 -121 -59 -16 -3934 -16 -3992 0 -59 17 -131 69
-170 121 -51 71 -62 131 -62 329 0 169 0 172 21 173 12 0 101 1 197 2 170 2
177 3 233 31 72 35 122 85 156 156 21 46 26 69 25 135 0 68 -4 88 -28 135 -33
63 -82 112 -146 145 -59 30 -94 34 -293 35 l-167 0 2 317 3 318 180 1 c236 1
294 18 374 110 56 64 76 118 75 209 0 68 -4 89 -29 138 -44 89 -131 155 -225
172 -19 3 -112 7 -206 7 l-172 1 1 317 0 318 183 0 c211 0 254 10 333 72 168
133 154 400 -29 515 -66 42 -106 48 -300 49 l-185 1 -1 318 -1 317 176 1 c97
0 189 3 205 5 82 14 186 97 227 182 18 36 23 65 23 127 1 95 -27 167 -90 228
-80 78 -146 96 -359 96 -82 0 -158 0 -168 0 -16 1 -18 14 -17 176 2 201 13
254 66 328 39 53 107 101 169 119 29 8 381 12 1275 12 l1235 2 56 26 c92 42
148 105 177 198 47 148 -29 317 -172 382 l-51 23 -1270 2 c-1200 1 -1275 1
-1355 -17z"/>
<path d="M5830 6985 c-152 -30 -307 -98 -427 -190 -91 -69 -1764 -1751 -1805
-1815 -61 -95 -93 -162 -126 -265 -30 -95 -160 -533 -167 -565 -2 -8 -27 -94
-55 -190 -60 -200 -64 -220 -64 -311 1 -127 45 -230 140 -325 118 -117 273
-163 436 -128 35 7 117 29 183 49 132 40 132 40 528 155 334 97 373 113 507
198 35 22 378 358 932 911 922 922 927 927 999 1088 62 138 84 248 84 413 -1
137 -9 195 -45 302 -53 158 -119 267 -234 386 -138 143 -336 251 -526 287 -68
13 -294 13 -360 0z m280 -637 c227 -68 325 -349 190 -543 -45 -63 -1671 -1681
-1710 -1701 -55 -27 -679 -208 -688 -199 -3 3 -1 20 5 38 6 17 48 160 93 317
45 157 93 306 107 331 17 31 290 311 861 881 883 881 871 870 975 884 23 4 43
7 45 9 5 5 87 -6 122 -17z"/>
</g>
</svg>
